<svg width="163" height="271" viewBox="0 0 163 271" fill="none" xmlns="http://www.w3.org/2000/svg">
<g style="mix-blend-mode:plus-lighter">
<path d="M81.5 0L83.3221 124.625C83.3367 125.619 84.6365 125.985 85.1676 125.144L139.129 39.687L86.8369 130.959C86.4638 131.61 86.9143 132.425 87.6642 132.455L163 135.5L87.6642 138.545C86.9143 138.575 86.4638 139.39 86.8369 140.041L139.129 231.313L85.1676 145.856C84.6365 145.015 83.3367 145.381 83.3221 146.375L81.5 271L79.6779 146.375C79.6633 145.381 78.3635 145.015 77.8324 145.856L23.8708 231.313L76.1631 140.041C76.5362 139.39 76.0857 138.575 75.3358 138.545L0 135.5L75.3358 132.455C76.0857 132.425 76.5362 131.61 76.1631 130.959L23.8708 39.687L77.8324 125.144C78.3635 125.985 79.6633 125.619 79.6779 124.625L81.5 0Z" fill="#D9D9D9"/>
</g>
</svg>
